<svg xmlns="http://www.w3.org/2000/svg" xmlns:xlink="http://www.w3.org/1999/xlink" id="Layer_1" x="0px" y="0px" width="155px" height="60px" viewBox="0 0 155 60" xml:space="preserve"><g transform="translate(-113.887 -173.414)">	<g transform="translate(113.887 173.414)">		<path fill="#CB0017" d="M54.697,5.099c0,0-5.8-1.1-6.6-1c-0.8,0.101-17.178-0.199-18.716,0c-1.538,0.2-6.828,0.608-7.62,0.894   c0,0-7.924,0.479-8.157,0.865c-0.432,0.908-1.111,1.678-1.959,2.22C10.626,8.54,8.333,10.063,9.403,12   c1.071,1.938,2.471,3.333-0.611,4.792c-3.082,1.459-4.713,3.08-4.713,4.375c0,1.295,1.245,0.462,1.4,1.381   c0.155,0.919,2.063-1.073,2.063-0.534s-0.2,1.016-1.757,1.785c-1.557,0.771-3.848,1.775-3.925,3.307   c-0.652,1.191-0.143,1.498,1.529,0.92l3.39-2.017c0,0,1.882-0.552,1.325,0.462c-0.557,1.015-4.715,2.754-5.1,3.538   c-0.385,0.784-1.982,1.673-0.84,3.468c0.52,0.119,1.066,0.036,1.528-0.23c0.641-0.317,3.619-1.531,3.77-0.38   c0.151,1.149-0.482,2.083,0.306,2.545s1.019,0.508,1.094,2.066c0.075,1.558,0.636,1.779-0.838,2.545   C6.55,40.788,5.018,41.5,5.018,42.877l2.674,1.301l3.746-0.762c0,0,2.575,1.631,1.427,2.012c-1.148,0.379-2.548,2.114-3.465,2.682   c-0.917,0.564-3.261,1.83-2.165,3.156s2.725,0.484,4.559,0.553c1.834,0.066,1.708,0.385,3.109,0.615s9.939,3.537,9.939,3.537   h13.174l-0.077-0.631c0,0-1.015-1.531,1.223-1.61c2.238-0.081,10.553-0.685,10.553-0.685l2.546-0.457c0,0,0.081-1.174-4.077-1.324   c-4.158-0.148-1.712-2.299-1.712-2.299l7.089,0.385c0,0-0.729-0.385,1.209-0.23l1.7-1.477l-0.081-0.766l0.843-0.386   c0,0-3.791-1.676-2.546-1.601c1.352-0.037,2.543-0.896,3.008-2.166l1.222-0.075l0.336-1.22c0.458-0.535,0.602-1.271,0.38-1.938   c-0.308-1.3-1.25-1.935-0.947-2.392c0.303-0.457,1.091-0.23,1.091-0.23l-0.226-1.607l0.842-0.767l-1.214-0.521l0.53-1.259   c0,0-1.97-1.259-0.793-2.5l1.323-1.572l-0.915-0.533c-0.025-0.534,0.237-1.04,0.688-1.327L59.25,26.33   c-1.25,0-0.259-0.82-0.634-2.142c-0.375-1.322-0.97-2.017,0.552-2.166c-0.34-0.38-0.768-0.671-1.246-0.848   c-0.991-0.453,0.815-1.3,0.014-1.899c-0.801-0.601-0.869-2.101-2.006-2.101c-1.137,0-1.282-2.137-2.994-2.137   s-2.337-1.3,1.006-1.106c3.343,0.194,5.934,2.008,2.79-2.337c-1.572-0.878-3.308-1.423-5.1-1.6c0,0-1.44-1.137,1.5-1.241h2.994   c2.1,0.136,2.314-2.305-1.436-3.642L54.697,5.099z"></path>		<path fill="#1A1818" d="M48.627,24.867l-9.9,0.621c-0.133-5.716-2.346-8.573-6.638-8.57c-4.915,0-7.373,4.382-7.374,13.145   c0,5.058,0.667,8.491,2,10.299c1.298,1.778,3.399,2.793,5.6,2.7c3.894,0,6.271-2.537,7.132-7.609l9.18,0.563   c-0.588,4.801-2.382,8.455-5.38,10.967c-7.281,5.604-17.61,4.843-23.992-1.768c-3.329-3.679-4.993-8.761-4.993-15.246   c0-6.066,1.611-11.038,4.833-14.915c3.222-3.876,7.624-5.812,13.205-5.806c9.671,0,15.114,5.207,16.328,15.622L48.627,24.867z"></path>		<path fill="#FFFFFF" d="M49.035,23.516l-9.9,0.616c-0.145-5.716-2.357-8.573-6.638-8.574c-4.918,0.001-7.378,4.383-7.378,13.148   c0,5.064,0.668,8.488,2,10.3c1.296,1.781,3.398,2.795,5.6,2.699c3.893,0,6.272-2.535,7.136-7.604l9.176,0.558   c-0.588,4.814-2.378,8.461-5.376,10.971c-7.278,5.614-17.615,4.854-23.994-1.763c-3.329-3.678-4.996-8.758-5-15.241   c0-6.078,1.611-11.05,4.833-14.915c3.225-3.877,7.627-5.815,13.206-5.815c9.667,0,15.109,5.209,16.328,15.627L49.035,23.516z"></path>		<path fill="none" stroke="#FECB1B" stroke-width="2" stroke-miterlimit="10" d="M49.035,23.516l-9.9,0.616   c-0.145-5.716-2.357-8.573-6.638-8.574c-4.918,0.001-7.378,4.383-7.378,13.148c0,5.064,0.668,8.488,2,10.3   c1.296,1.781,3.398,2.795,5.6,2.699c3.893,0,6.272-2.535,7.136-7.604l9.176,0.558c-0.588,4.814-2.378,8.461-5.376,10.971   c-7.278,5.614-17.615,4.854-23.994-1.763c-3.329-3.678-4.996-8.758-5-15.241c0-6.078,1.611-11.05,4.833-14.915   c3.225-3.877,7.627-5.815,13.206-5.815c9.667,0,15.109,5.209,16.328,15.627L49.035,23.516z"></path>	</g>	<g transform="translate(182.026 174.563)">		<path fill="#FFFFFF" d="M11.78,13.123c-0.009,0.459-0.101,0.912-0.271,1.34c-0.199,0.516-0.485,0.994-0.846,1.415   c-0.404,0.478-0.908,0.862-1.475,1.128c-0.656,0.301-1.371,0.448-2.092,0.433c-0.555,0.006-1.109-0.06-1.647-0.195   c-0.48-0.123-0.935-0.328-1.346-0.605c-0.428-0.298-0.803-0.664-1.112-1.084c-0.311-0.424-0.57-0.882-0.772-1.367   c-0.218-0.519-0.379-1.061-0.48-1.614c-0.109-0.602-0.162-1.213-0.159-1.823c-0.014-0.949,0.121-1.894,0.4-2.801   c0.24-0.774,0.631-1.494,1.151-2.117C3.611,5.262,4.21,4.804,4.886,4.492c0.674-0.307,1.406-0.464,2.146-0.46   c0.866-0.015,1.72,0.202,2.474,0.628c0.674,0.373,1.246,0.906,1.664,1.553c0.352,0.517,0.552,1.122,0.575,1.747   c0.006,0.291-0.095,0.575-0.281,0.8c-0.157,0.216-0.409,0.344-0.678,0.345c-0.245,0.018-0.487-0.069-0.667-0.24   C9.915,8.617,9.746,8.34,9.62,8.044C9.383,7.486,9.018,6.992,8.554,6.601C8.12,6.274,7.588,6.105,7.045,6.123   C6.123,6.106,5.26,6.573,4.771,7.352c-0.626,1.054-0.921,2.271-0.847,3.495c-0.024,0.854,0.103,1.706,0.375,2.515   c0.196,0.596,0.566,1.118,1.062,1.5c0.468,0.336,1.032,0.511,1.607,0.5c0.612,0.019,1.211-0.181,1.69-0.562   c0.501-0.437,0.863-1.01,1.042-1.65c0.078-0.296,0.202-0.578,0.367-0.836c0.161-0.222,0.427-0.344,0.7-0.322   c0.273-0.001,0.534,0.119,0.71,0.327C11.675,12.539,11.784,12.826,11.78,13.123z"></path>		<path fill="#FFFFFF" d="M21.05,12.528c0.006,0.676-0.096,1.347-0.299,1.99c-0.18,0.574-0.472,1.106-0.859,1.566   c-0.366,0.429-0.825,0.771-1.342,1c-0.555,0.239-1.151,0.358-1.756,0.349c-0.6,0.01-1.193-0.111-1.74-0.354   c-0.516-0.235-0.971-0.581-1.338-1.013c-0.387-0.456-0.68-0.985-0.858-1.557c-0.201-0.643-0.302-1.313-0.292-1.986   c-0.008-0.681,0.095-1.358,0.3-2.008c0.179-0.57,0.468-1.1,0.853-1.557c0.365-0.431,0.824-0.772,1.342-1   c1.119-0.471,2.381-0.471,3.5,0c0.52,0.231,0.979,0.575,1.35,1.008c0.387,0.459,0.676,0.988,0.854,1.558   C20.966,11.173,21.063,11.85,21.05,12.528z M18.915,12.528c0.048-0.807-0.153-1.609-0.573-2.3   c-0.336-0.523-0.92-0.835-1.541-0.823c-0.398-0.006-0.787,0.124-1.102,0.367c-0.344,0.283-0.6,0.659-0.732,1.083   c-0.343,1.083-0.343,2.244,0,3.326c0.135,0.423,0.387,0.798,0.726,1.084c0.315,0.251,0.709,0.384,1.112,0.376   c0.623,0.012,1.207-0.301,1.541-0.827C18.761,14.128,18.961,13.331,18.915,12.528z"></path>		<path fill="#FFFFFF" d="M24.026,8.954v0.292c0.313-0.499,0.731-0.92,1.229-1.234c0.467-0.269,0.996-0.404,1.534-0.395   c0.531-0.008,1.054,0.137,1.507,0.416c0.442,0.28,0.789,0.691,0.989,1.177c0.144,0.302,0.234,0.624,0.272,0.956   c0.047,0.435,0.066,0.871,0.063,1.309v4.493c0.027,0.389-0.075,0.776-0.293,1.1c-0.18,0.24-0.463,0.379-0.762,0.372   c-0.304,0.007-0.593-0.135-0.771-0.38c-0.22-0.319-0.324-0.702-0.302-1.088v-4.025c0.03-0.622-0.069-1.244-0.293-1.825   c-0.217-0.436-0.685-0.689-1.167-0.634c-0.38,0.001-0.749,0.138-1.038,0.386c-0.325,0.278-0.563,0.646-0.687,1.057   c-0.133,0.664-0.186,1.341-0.156,2.017v3.025c0.027,0.391-0.077,0.778-0.3,1.1c-0.187,0.238-0.476,0.374-0.775,0.367   c-0.3,0.004-0.582-0.138-0.758-0.38c-0.22-0.319-0.324-0.702-0.3-1.088v-6.98c-0.026-0.362,0.066-0.725,0.267-1.029   c0.171-0.226,0.441-0.353,0.726-0.341c0.18-0.002,0.355,0.05,0.507,0.149c0.161,0.113,0.286,0.27,0.362,0.451   C23.981,8.453,24.03,8.702,24.026,8.954z"></path>		<path fill="#FFFFFF" d="M31.22,7.833h0.234V6.382c0-0.389,0.008-0.693,0.026-0.915c0.013-0.198,0.063-0.393,0.151-0.57   c0.082-0.162,0.207-0.301,0.358-0.399c0.155-0.103,0.338-0.156,0.522-0.154c0.283,0.005,0.55,0.131,0.734,0.345   c0.146,0.155,0.242,0.351,0.276,0.562c0.046,0.312,0.065,0.627,0.06,0.942v1.646h0.779c0.254-0.018,0.504,0.07,0.689,0.243   c0.16,0.166,0.246,0.392,0.237,0.623c0.027,0.273-0.104,0.538-0.338,0.682C34.649,9.533,34.315,9.6,33.98,9.581h-0.399v4.439   c-0.004,0.291,0.009,0.582,0.035,0.871c0.013,0.181,0.078,0.354,0.187,0.5c0.129,0.139,0.313,0.209,0.5,0.19   c0.172-0.007,0.342-0.032,0.508-0.075c0.164-0.043,0.33-0.068,0.5-0.075c0.182,0.005,0.352,0.091,0.464,0.234   c0.14,0.16,0.214,0.367,0.207,0.579c0.005,0.383-0.216,0.732-0.562,0.894c-0.507,0.233-1.062,0.34-1.615,0.31   c-0.532,0.036-1.063-0.097-1.515-0.38c-0.346-0.257-0.586-0.631-0.676-1.052c-0.121-0.592-0.174-1.196-0.16-1.8V9.572h-0.278   c-0.256,0.018-0.51-0.071-0.699-0.247c-0.161-0.167-0.25-0.395-0.241-0.628c-0.009-0.234,0.085-0.46,0.254-0.623   C30.692,7.901,30.955,7.815,31.22,7.833z"></path>		<path fill="#FFFFFF" d="M37.838,6.497c-0.285,0.004-0.561-0.107-0.762-0.31c-0.222-0.235-0.336-0.553-0.314-0.876   c-0.013-0.313,0.104-0.619,0.324-0.845c0.192-0.212,0.465-0.332,0.752-0.332c0.274-0.001,0.539,0.106,0.733,0.3   c0.228,0.233,0.343,0.552,0.319,0.876c0.02,0.32-0.094,0.635-0.313,0.871C38.386,6.385,38.118,6.499,37.838,6.497z M38.89,8.99   v6.979c0.029,0.39-0.075,0.778-0.301,1.1c-0.184,0.239-0.47,0.377-0.771,0.372c-0.302,0.006-0.585-0.136-0.761-0.38   c-0.215-0.32-0.317-0.703-0.293-1.088V9.064c-0.026-0.382,0.076-0.763,0.293-1.079c0.181-0.235,0.464-0.37,0.761-0.362   c0.3-0.006,0.585,0.128,0.771,0.362c0.217,0.289,0.324,0.646,0.303,1.005H38.89z"></path>		<path fill="#FFFFFF" d="M43.03,8.954v0.292c0.313-0.499,0.731-0.921,1.229-1.234c0.467-0.269,0.996-0.404,1.535-0.395   c0.53-0.008,1.053,0.137,1.506,0.416c0.442,0.28,0.789,0.691,0.989,1.177c0.144,0.302,0.234,0.624,0.273,0.956   c0.047,0.435,0.065,0.871,0.063,1.309v4.493c0.026,0.389-0.076,0.776-0.293,1.1c-0.179,0.24-0.463,0.379-0.762,0.372   c-0.305,0.007-0.592-0.135-0.771-0.38c-0.219-0.319-0.324-0.702-0.299-1.088v-4.025c0.028-0.622-0.07-1.244-0.293-1.825   c-0.218-0.436-0.685-0.688-1.166-0.634c-0.382,0.001-0.75,0.138-1.039,0.386c-0.328,0.278-0.565,0.645-0.688,1.057   c-0.133,0.664-0.186,1.341-0.156,2.017v3.025c0.028,0.391-0.076,0.778-0.3,1.1c-0.187,0.238-0.476,0.374-0.774,0.367   c-0.301,0.004-0.582-0.138-0.759-0.38c-0.219-0.319-0.323-0.702-0.3-1.088v-6.98c-0.025-0.362,0.066-0.725,0.266-1.029   c0.172-0.226,0.442-0.353,0.727-0.341c0.18-0.002,0.355,0.05,0.507,0.149c0.161,0.113,0.287,0.27,0.362,0.451   C42.987,8.453,43.035,8.703,43.03,8.954z"></path>		<path fill="#FFFFFF" d="M56.054,13.122h-4.168c-0.004,0.498,0.097,0.992,0.295,1.449c0.158,0.381,0.42,0.709,0.757,0.947   c0.307,0.21,0.67,0.32,1.042,0.318c0.236,0.003,0.474-0.03,0.699-0.101c0.221-0.072,0.428-0.18,0.613-0.318   c0.193-0.141,0.375-0.296,0.545-0.464c0.168-0.166,0.383-0.39,0.648-0.673c0.129-0.112,0.297-0.17,0.469-0.158   c0.196-0.01,0.389,0.063,0.53,0.199c0.142,0.157,0.214,0.364,0.2,0.575c-0.016,0.27-0.092,0.531-0.227,0.766   c-0.175,0.319-0.404,0.604-0.684,0.84c-0.339,0.289-0.729,0.515-1.146,0.667c-0.509,0.186-1.048,0.275-1.589,0.266   c-1.21,0.067-2.385-0.422-3.19-1.327c-0.807-1.021-1.211-2.301-1.141-3.6c-0.007-0.673,0.09-1.342,0.28-1.986   c0.168-0.572,0.444-1.105,0.819-1.569c0.356-0.434,0.812-0.776,1.326-1c0.552-0.238,1.146-0.357,1.748-0.35   c1.484-0.05,2.855,0.793,3.48,2.141c0.29,0.602,0.441,1.26,0.445,1.928c0,0.607-0.153,1.001-0.461,1.181   C56.95,13.054,56.504,13.146,56.054,13.122z M51.886,11.751h3.863c0.004-0.664-0.203-1.313-0.588-1.854   c-0.328-0.404-0.826-0.632-1.347-0.615c-0.511-0.01-0.994,0.221-1.308,0.623C52.124,10.445,51.907,11.088,51.886,11.751   L51.886,11.751z"></path>		<path fill="#FFFFFF" d="M61.222,8.954v0.292c0.312-0.499,0.73-0.921,1.229-1.234c0.467-0.269,0.997-0.404,1.534-0.395   c0.53-0.008,1.055,0.137,1.507,0.416c0.443,0.28,0.791,0.691,0.991,1.177c0.144,0.302,0.233,0.624,0.272,0.956   c0.047,0.435,0.066,0.871,0.063,1.309v4.493c0.027,0.389-0.075,0.776-0.293,1.1c-0.18,0.24-0.462,0.379-0.762,0.372   c-0.305,0.007-0.592-0.135-0.772-0.38c-0.219-0.319-0.323-0.702-0.3-1.088v-4.025c0.029-0.622-0.069-1.244-0.293-1.825   c-0.217-0.436-0.684-0.689-1.167-0.634c-0.382,0.001-0.749,0.137-1.038,0.386c-0.327,0.278-0.564,0.645-0.686,1.057   c-0.134,0.664-0.186,1.341-0.156,2.017v3.025c0.027,0.391-0.078,0.778-0.301,1.1c-0.187,0.238-0.474,0.374-0.775,0.367   c-0.299,0.004-0.582-0.138-0.758-0.38c-0.219-0.319-0.323-0.702-0.299-1.088v-6.98c-0.027-0.362,0.065-0.725,0.265-1.029   c0.172-0.226,0.442-0.353,0.726-0.341c0.182-0.002,0.357,0.05,0.508,0.149c0.16,0.113,0.287,0.27,0.363,0.451   C61.177,8.453,61.226,8.702,61.222,8.954z"></path>		<path fill="#FFFFFF" d="M68.42,7.833h0.232V6.382c0-0.389,0.009-0.693,0.025-0.915c0.014-0.198,0.064-0.393,0.152-0.57   c0.083-0.162,0.207-0.301,0.359-0.399c0.154-0.103,0.337-0.156,0.523-0.154c0.281,0.005,0.549,0.131,0.732,0.345   c0.146,0.155,0.243,0.351,0.277,0.562c0.045,0.312,0.064,0.627,0.059,0.942v1.646h0.78c0.254-0.018,0.503,0.07,0.688,0.243   c0.161,0.166,0.247,0.392,0.238,0.623c0.025,0.273-0.105,0.538-0.34,0.682c-0.303,0.146-0.637,0.213-0.971,0.194h-0.4v4.439   c-0.004,0.291,0.008,0.582,0.035,0.871c0.014,0.181,0.078,0.354,0.188,0.5c0.127,0.139,0.313,0.209,0.5,0.19   c0.172-0.007,0.342-0.032,0.506-0.075s0.332-0.068,0.5-0.075c0.183,0.005,0.354,0.091,0.465,0.234   c0.14,0.16,0.213,0.367,0.207,0.579c0.004,0.383-0.215,0.732-0.563,0.894c-0.504,0.233-1.059,0.34-1.615,0.31   c-0.531,0.036-1.062-0.097-1.514-0.38c-0.346-0.257-0.586-0.631-0.675-1.052c-0.12-0.592-0.175-1.196-0.16-1.8V9.572h-0.28   c-0.258,0.018-0.512-0.071-0.701-0.247c-0.162-0.167-0.25-0.395-0.242-0.628c-0.008-0.233,0.086-0.46,0.254-0.623   C67.886,7.901,68.151,7.814,68.42,7.833z"></path>		<path fill="#FFFFFF" d="M79.343,16.075c-0.447,0.409-0.951,0.753-1.494,1.021c-0.508,0.232-1.062,0.35-1.619,0.341   c-0.504,0.011-1.002-0.116-1.439-0.367c-0.406-0.237-0.738-0.583-0.957-1c-0.224-0.419-0.339-0.887-0.336-1.361   c-0.016-0.61,0.18-1.207,0.555-1.689c0.387-0.476,0.924-0.807,1.521-0.937c0.133-0.036,0.469-0.116,1.008-0.239   c0.537-0.123,0.996-0.237,1.377-0.341c0.383-0.104,0.797-0.229,1.244-0.376c0.012-0.489-0.105-0.972-0.34-1.4   c-0.314-0.346-0.781-0.513-1.245-0.447c-0.423-0.026-0.845,0.062-1.221,0.257c-0.294,0.193-0.534,0.458-0.7,0.769   c-0.195,0.342-0.333,0.567-0.414,0.677c-0.139,0.131-0.33,0.191-0.52,0.163c-0.232,0.002-0.457-0.092-0.619-0.261   c-0.176-0.177-0.271-0.419-0.262-0.668c0.006-0.443,0.146-0.875,0.399-1.238c0.313-0.439,0.743-0.783,1.241-0.991   c0.664-0.279,1.38-0.411,2.102-0.389c0.754-0.033,1.506,0.096,2.206,0.376c0.521,0.233,0.927,0.66,1.136,1.19   c0.246,0.691,0.358,1.424,0.332,2.157c0,0.566,0,1.047,0,1.442s-0.004,0.835-0.013,1.318c0.004,0.479,0.071,0.956,0.2,1.419   c0.098,0.31,0.165,0.628,0.199,0.95c-0.004,0.259-0.115,0.503-0.309,0.677c-0.182,0.193-0.434,0.304-0.699,0.305   c-0.256-0.019-0.491-0.146-0.647-0.349C79.761,16.776,79.532,16.437,79.343,16.075z M79.204,12.582   c-0.444,0.169-0.899,0.307-1.362,0.411c-0.597,0.144-1.008,0.25-1.236,0.317c-0.247,0.079-0.473,0.217-0.655,0.4   c-0.216,0.219-0.329,0.52-0.312,0.827c-0.008,0.347,0.125,0.684,0.367,0.933c0.25,0.259,0.6,0.399,0.959,0.385   c0.41,0.003,0.813-0.105,1.168-0.313c0.334-0.188,0.606-0.469,0.782-0.81c0.229-0.57,0.328-1.186,0.289-1.8V12.582z"></path>		<path fill="#FFFFFF" d="M83.134,15.97V5.498c-0.026-0.389,0.074-0.774,0.285-1.101c0.18-0.242,0.467-0.382,0.77-0.372   c0.304-0.009,0.594,0.128,0.779,0.367c0.224,0.322,0.328,0.71,0.302,1.1v10.473c0.028,0.39-0.078,0.778-0.302,1.1   c-0.186,0.238-0.475,0.374-0.775,0.367c-0.301,0.006-0.585-0.137-0.762-0.38C83.218,16.733,83.114,16.352,83.134,15.97z"></path>		<path fill="#FFFFFF" d="M6.902,35.281h-3.5c-0.4,0.041-0.796-0.101-1.081-0.385c-0.246-0.357-0.36-0.791-0.324-1.225v-9.746   c-0.04-0.437,0.077-0.874,0.33-1.234c0.286-0.275,0.678-0.413,1.073-0.376h3.712c0.476-0.006,0.951,0.033,1.42,0.115   c0.386,0.07,0.753,0.222,1.077,0.442c0.277,0.188,0.52,0.423,0.717,0.693c0.209,0.281,0.369,0.595,0.478,0.929   c0.109,0.347,0.166,0.71,0.164,1.074c0.055,1.209-0.623,2.332-1.718,2.849c1.401,0.397,2.338,1.712,2.254,3.167   c0.012,0.685-0.157,1.359-0.489,1.959c-0.301,0.555-0.764,1.003-1.328,1.287c-0.381,0.174-0.785,0.292-1.2,0.349   C7.962,35.252,7.431,35.287,6.902,35.281z M4.319,24.288v3.352h2.123c0.454,0.019,0.907-0.045,1.338-0.186   c0.324-0.133,0.583-0.387,0.722-0.707c0.134-0.257,0.203-0.542,0.2-0.831c0.067-0.518-0.174-1.025-0.617-1.301   c-0.594-0.25-1.238-0.36-1.881-0.322L4.319,24.288z M6.73,29.523H4.319v3.786h2.494c1.566,0,2.349-0.64,2.349-1.919   c0.047-0.547-0.181-1.081-0.609-1.424C8.006,29.633,7.367,29.479,6.73,29.523L6.73,29.523z"></path>		<path fill="#FFFFFF" d="M13.481,24.562c-0.285,0.005-0.562-0.106-0.761-0.309c-0.223-0.236-0.338-0.553-0.316-0.876   c-0.012-0.314,0.105-0.619,0.324-0.846c0.193-0.211,0.466-0.331,0.753-0.332c0.274,0,0.539,0.107,0.733,0.301   c0.227,0.233,0.342,0.552,0.32,0.876c0.018,0.32-0.095,0.635-0.313,0.871C14.03,24.451,13.761,24.565,13.481,24.562z    M14.536,27.057v6.978c0.029,0.391-0.077,0.779-0.301,1.101c-0.185,0.239-0.472,0.377-0.772,0.372   c-0.302,0.006-0.584-0.137-0.761-0.38c-0.215-0.321-0.317-0.703-0.293-1.088v-6.908c-0.026-0.383,0.075-0.763,0.293-1.079   c0.181-0.235,0.463-0.37,0.761-0.363c0.301-0.006,0.586,0.128,0.772,0.363c0.216,0.289,0.321,0.646,0.299,1.005H14.536z"></path>		<path fill="#FFFFFF" d="M22.956,32.344c0.019,0.6-0.131,1.19-0.429,1.712c-0.298,0.484-0.741,0.862-1.27,1.079   c-0.646,0.261-1.342,0.386-2.041,0.367c-0.677,0.019-1.35-0.119-1.967-0.399c-0.486-0.218-0.904-0.563-1.209-1   c-0.246-0.354-0.383-0.771-0.392-1.201c-0.005-0.25,0.084-0.493,0.25-0.681c0.157-0.186,0.39-0.289,0.632-0.283   c0.189-0.013,0.377,0.055,0.516,0.188c0.142,0.154,0.258,0.331,0.344,0.521c0.179,0.381,0.447,0.713,0.783,0.965   c0.373,0.229,0.809,0.342,1.246,0.317c0.377,0.017,0.748-0.098,1.049-0.323c0.248-0.166,0.4-0.439,0.41-0.738   c0.029-0.361-0.131-0.714-0.424-0.929c-0.436-0.257-0.908-0.444-1.4-0.557c-0.614-0.163-1.215-0.381-1.791-0.65   c-0.434-0.207-0.811-0.516-1.1-0.898c-0.285-0.399-0.431-0.881-0.414-1.371c0-0.483,0.133-0.958,0.383-1.371   c0.271-0.444,0.662-0.802,1.127-1.03c0.562-0.271,1.179-0.402,1.802-0.385c0.502-0.007,1.003,0.059,1.485,0.193   c0.396,0.109,0.769,0.285,1.102,0.522c0.271,0.193,0.499,0.44,0.671,0.725c0.146,0.234,0.224,0.503,0.229,0.778   c0.01,0.25-0.078,0.495-0.246,0.681c-0.185,0.186-0.438,0.282-0.699,0.266c-0.206,0.004-0.406-0.072-0.559-0.212   c-0.197-0.194-0.373-0.407-0.527-0.638c-0.149-0.225-0.344-0.417-0.569-0.565c-0.271-0.155-0.579-0.229-0.892-0.212   c-0.34-0.014-0.678,0.084-0.959,0.277c-0.236,0.152-0.381,0.413-0.383,0.694c-0.006,0.24,0.098,0.47,0.28,0.624   c0.224,0.182,0.481,0.317,0.757,0.4c0.318,0.106,0.756,0.235,1.313,0.388c0.566,0.145,1.109,0.364,1.617,0.654   c0.386,0.221,0.711,0.528,0.953,0.898C22.854,31.509,22.966,31.924,22.956,32.344z"></path>		<path fill="#FFFFFF" d="M31.759,32.513c-0.008,0.335-0.09,0.664-0.237,0.965c-0.179,0.367-0.425,0.699-0.728,0.977   c-0.354,0.328-0.772,0.582-1.229,0.746c-0.535,0.197-1.102,0.293-1.67,0.283c-1.172,0.063-2.309-0.416-3.082-1.3   c-0.781-0.994-1.174-2.237-1.107-3.5c-0.018-0.901,0.154-1.796,0.506-2.626c0.305-0.72,0.814-1.334,1.469-1.765   c0.687-0.429,1.483-0.646,2.293-0.623c0.52-0.007,1.033,0.087,1.519,0.273c0.431,0.164,0.826,0.404,1.17,0.708   c0.3,0.262,0.548,0.574,0.734,0.924c0.155,0.28,0.243,0.595,0.254,0.915c0.006,0.273-0.097,0.537-0.285,0.734   c-0.177,0.194-0.428,0.303-0.69,0.299c-0.16,0.006-0.318-0.05-0.44-0.155c-0.153-0.146-0.286-0.314-0.394-0.5   c-0.209-0.384-0.484-0.726-0.816-1.009c-0.311-0.232-0.693-0.352-1.081-0.336c-0.618-0.006-1.195,0.311-1.522,0.836   c-0.42,0.687-0.621,1.484-0.578,2.287c-0.004,0.422,0.047,0.843,0.148,1.252c0.084,0.348,0.229,0.677,0.43,0.975   c0.174,0.255,0.406,0.465,0.68,0.609c0.27,0.139,0.568,0.211,0.873,0.207c0.394,0.012,0.779-0.105,1.101-0.336   c0.347-0.274,0.622-0.626,0.81-1.026c0.104-0.232,0.246-0.447,0.42-0.637c0.145-0.149,0.346-0.233,0.555-0.229   c0.258-0.002,0.5,0.124,0.648,0.336C31.668,32,31.757,32.252,31.759,32.513z"></path>		<path fill="#FFFFFF" d="M38.191,34.14v-0.31c-0.229,0.337-0.497,0.646-0.801,0.92c-0.27,0.239-0.582,0.428-0.92,0.553   c-0.366,0.126-0.752,0.188-1.141,0.181c-0.486,0.008-0.965-0.117-1.385-0.361c-0.404-0.237-0.732-0.584-0.947-1   c-0.303-0.696-0.439-1.453-0.4-2.213v-4.783c-0.028-0.384,0.072-0.766,0.289-1.083c0.185-0.234,0.468-0.368,0.766-0.358   c0.304-0.009,0.593,0.125,0.781,0.363c0.221,0.314,0.326,0.695,0.3,1.079v3.863c-0.009,0.475,0.032,0.947,0.125,1.411   c0.062,0.335,0.216,0.646,0.448,0.895c0.236,0.223,0.554,0.34,0.879,0.322c0.369-0.004,0.728-0.131,1.015-0.362   c0.317-0.242,0.56-0.571,0.694-0.946c0.158-0.737,0.219-1.492,0.18-2.246v-2.936c-0.025-0.384,0.079-0.765,0.3-1.079   c0.187-0.236,0.474-0.371,0.772-0.363c0.298-0.01,0.58,0.123,0.765,0.358c0.218,0.317,0.318,0.699,0.289,1.083v7   c0.026,0.366-0.069,0.729-0.276,1.034c-0.312,0.395-0.884,0.461-1.276,0.148c-0.06-0.047-0.112-0.102-0.159-0.162   C38.276,34.855,38.173,34.499,38.191,34.14z"></path>		<path fill="#FFFFFF" d="M42.425,24.562c-0.285,0.005-0.561-0.106-0.762-0.309c-0.424-0.496-0.421-1.229,0.008-1.722   c0.193-0.211,0.467-0.332,0.754-0.333c0.273,0,0.537,0.107,0.732,0.301c0.227,0.233,0.344,0.552,0.32,0.876   c0.019,0.32-0.094,0.635-0.313,0.871C42.974,24.45,42.706,24.564,42.425,24.562z M43.48,27.057v6.978   c0.029,0.391-0.077,0.779-0.301,1.101c-0.185,0.239-0.471,0.377-0.771,0.372c-0.3,0.006-0.585-0.137-0.761-0.38   c-0.216-0.321-0.316-0.703-0.292-1.088v-6.908c-0.028-0.383,0.074-0.763,0.292-1.079c0.182-0.235,0.464-0.37,0.761-0.363   c0.301-0.006,0.585,0.129,0.771,0.363c0.218,0.288,0.324,0.645,0.305,1.005H43.48z"></path>		<path fill="#FFFFFF" d="M45.161,25.897h0.234v-1.451c0-0.389,0.009-0.693,0.026-0.915c0.012-0.198,0.063-0.392,0.151-0.569   c0.083-0.163,0.206-0.301,0.358-0.4c0.156-0.103,0.338-0.156,0.522-0.154c0.283,0.006,0.55,0.131,0.733,0.346   c0.146,0.155,0.242,0.351,0.275,0.561c0.047,0.313,0.064,0.628,0.06,0.943v1.645h0.78c0.254-0.017,0.504,0.071,0.689,0.243   c0.16,0.167,0.246,0.392,0.238,0.623c0.027,0.273-0.105,0.538-0.34,0.682c-0.301,0.146-0.637,0.213-0.971,0.194h-0.4v4.44   c-0.004,0.29,0.008,0.581,0.035,0.871c0.014,0.181,0.078,0.354,0.188,0.5c0.127,0.138,0.313,0.208,0.5,0.189   c0.171-0.007,0.342-0.031,0.506-0.076c0.164-0.043,0.332-0.066,0.5-0.074c0.182,0.006,0.354,0.092,0.465,0.234   c0.139,0.159,0.213,0.366,0.207,0.579c0.004,0.382-0.215,0.731-0.562,0.894c-0.505,0.234-1.06,0.341-1.616,0.311   c-0.531,0.036-1.063-0.097-1.514-0.38c-0.346-0.257-0.586-0.631-0.676-1.052c-0.119-0.594-0.174-1.196-0.16-1.802v-4.641h-0.279   c-0.258,0.018-0.512-0.072-0.701-0.247c-0.162-0.168-0.25-0.395-0.242-0.628c-0.008-0.235,0.086-0.463,0.256-0.625   C44.632,25.966,44.895,25.879,45.161,25.897z"></path>		<path fill="#FFFFFF" d="M57.243,32.344c0.019,0.6-0.131,1.19-0.429,1.712c-0.299,0.484-0.741,0.862-1.27,1.079   c-0.646,0.261-1.342,0.386-2.041,0.367c-0.677,0.019-1.35-0.119-1.967-0.399c-0.486-0.218-0.904-0.563-1.209-1   c-0.246-0.354-0.383-0.771-0.392-1.201c-0.005-0.25,0.084-0.493,0.25-0.681c0.157-0.186,0.39-0.289,0.632-0.283   c0.189-0.013,0.377,0.055,0.516,0.188c0.141,0.154,0.256,0.331,0.342,0.521c0.18,0.381,0.447,0.712,0.785,0.965   c0.373,0.23,0.807,0.342,1.244,0.317c0.377,0.017,0.748-0.098,1.051-0.323c0.246-0.166,0.398-0.439,0.41-0.738   c0.029-0.361-0.133-0.714-0.426-0.929c-0.436-0.257-0.906-0.444-1.4-0.557c-0.615-0.163-1.213-0.381-1.791-0.65   c-0.434-0.207-0.811-0.516-1.1-0.898c-0.284-0.399-0.43-0.881-0.414-1.371c0-0.483,0.133-0.958,0.383-1.371   c0.271-0.444,0.662-0.802,1.129-1.03c0.562-0.271,1.178-0.402,1.801-0.385c0.502-0.007,1.002,0.059,1.486,0.193   c0.395,0.108,0.766,0.285,1.1,0.522c0.271,0.193,0.5,0.44,0.672,0.725c0.144,0.234,0.224,0.503,0.229,0.778   c0.01,0.25-0.078,0.495-0.246,0.681c-0.184,0.186-0.438,0.282-0.699,0.266c-0.207,0.005-0.405-0.071-0.559-0.212   c-0.197-0.194-0.373-0.407-0.527-0.638c-0.148-0.225-0.344-0.417-0.568-0.565c-0.271-0.154-0.579-0.229-0.891-0.212   c-0.34-0.014-0.678,0.084-0.959,0.277c-0.236,0.152-0.381,0.413-0.383,0.694c-0.006,0.24,0.098,0.47,0.28,0.624   c0.224,0.181,0.481,0.316,0.757,0.4c0.318,0.106,0.756,0.235,1.313,0.388c0.566,0.145,1.109,0.364,1.617,0.654   c0.386,0.221,0.711,0.528,0.953,0.898C57.14,31.509,57.254,31.924,57.243,32.344z"></path>		<path fill="#FFFFFF" d="M4.319,41.859v9.438h4.7c0.317-0.021,0.63,0.091,0.862,0.31c0.2,0.209,0.31,0.488,0.301,0.778   c0.011,0.288-0.098,0.567-0.301,0.772c-0.236,0.215-0.548,0.322-0.866,0.302h-5.6c-0.401,0.038-0.799-0.101-1.089-0.382   c-0.252-0.356-0.37-0.793-0.332-1.229v-9.99c-0.031-0.422,0.081-0.842,0.316-1.192c0.196-0.261,0.505-0.409,0.831-0.4   c0.328-0.009,0.642,0.138,0.847,0.394C4.232,41.009,4.348,41.433,4.319,41.859z"></path>		<path fill="#FFFFFF" d="M10.713,44.07h0.232v-1.451c0-0.389,0.009-0.693,0.027-0.914c0.012-0.198,0.063-0.393,0.15-0.57   c0.083-0.162,0.207-0.301,0.359-0.4c0.154-0.103,0.338-0.156,0.523-0.152c0.281,0.005,0.549,0.13,0.732,0.345   c0.146,0.155,0.243,0.351,0.277,0.562c0.045,0.313,0.063,0.627,0.058,0.942v1.646h0.781c0.254-0.018,0.504,0.07,0.688,0.242   c0.161,0.168,0.247,0.393,0.238,0.623c0.027,0.273-0.104,0.539-0.339,0.684c-0.302,0.146-0.636,0.212-0.972,0.193h-0.398v4.439   c-0.005,0.291,0.007,0.581,0.034,0.871c0.013,0.181,0.077,0.354,0.187,0.5c0.129,0.138,0.313,0.208,0.5,0.189   c0.172-0.006,0.344-0.031,0.51-0.076c0.162-0.043,0.33-0.066,0.5-0.073c0.183,0.005,0.353,0.09,0.465,0.233   c0.14,0.16,0.213,0.367,0.207,0.58c0.005,0.383-0.217,0.73-0.563,0.894c-0.506,0.233-1.061,0.34-1.615,0.31   c-0.531,0.036-1.063-0.097-1.514-0.38c-0.346-0.257-0.586-0.631-0.676-1.052c-0.121-0.594-0.174-1.196-0.16-1.801V45.81H10.67   c-0.258,0.018-0.511-0.072-0.699-0.246c-0.163-0.168-0.25-0.396-0.243-0.629c-0.008-0.234,0.084-0.46,0.253-0.623   C10.183,44.138,10.445,44.052,10.713,44.07z"></path>		<path fill="#FFFFFF" d="M21.769,52.294v-0.235c-0.249,0.332-0.533,0.636-0.848,0.907c-0.549,0.471-1.248,0.723-1.971,0.712   c-0.496,0.004-0.984-0.123-1.417-0.366c-0.45-0.262-0.837-0.621-1.128-1.053c-0.332-0.486-0.576-1.027-0.723-1.602   c-0.168-0.648-0.25-1.317-0.245-1.988c-0.075-1.252,0.269-2.494,0.976-3.529c0.984-1.242,2.707-1.622,4.121-0.906   c0.477,0.287,0.895,0.659,1.232,1.101v-3.563c-0.025-0.393,0.064-0.783,0.262-1.123c0.165-0.25,0.447-0.395,0.746-0.382   c0.291-0.015,0.57,0.116,0.745,0.351c0.194,0.308,0.286,0.668,0.261,1.029v10.649c0.027,0.366-0.072,0.731-0.281,1.035   c-0.173,0.223-0.441,0.351-0.725,0.345c-0.284,0.004-0.553-0.13-0.723-0.357C21.845,53.017,21.746,52.658,21.769,52.294z    M17.578,48.747c-0.014,0.568,0.077,1.135,0.271,1.671c0.143,0.409,0.397,0.771,0.736,1.04c0.293,0.226,0.652,0.349,1.022,0.349   c0.368,0.002,0.729-0.114,1.024-0.332c0.34-0.261,0.599-0.614,0.742-1.017c0.2-0.549,0.295-1.129,0.277-1.711   c0.014-0.566-0.08-1.129-0.277-1.659c-0.148-0.415-0.408-0.781-0.748-1.062c-0.293-0.236-0.658-0.367-1.035-0.367   c-0.381-0.002-0.752,0.131-1.045,0.377c-0.332,0.287-0.58,0.66-0.715,1.078C17.654,47.64,17.568,48.193,17.578,48.747   L17.578,48.747z"></path>		<path fill="#FFFFFF" d="M27.336,53.675c-0.316,0.003-0.619-0.125-0.837-0.354c-0.245-0.27-0.372-0.627-0.351-0.99   c-0.008-0.342,0.111-0.672,0.336-0.93c0.202-0.25,0.507-0.394,0.827-0.39c0.321-0.003,0.631,0.14,0.839,0.386   c0.23,0.254,0.355,0.588,0.349,0.934c0.021,0.361-0.104,0.717-0.349,0.986C27.94,53.546,27.644,53.676,27.336,53.675z"></path>	</g></g></svg>